<svg xmlns="http://www.w3.org/2000/svg" width="31" height="54" viewBox="0 0 31 54">
  <defs>
    <style>
      .cls-1 {
        fill: #fb000e;
        fill-rule: evenodd;
      }
    </style>
  </defs>
  <path id="pin_big_copy_3" data-name="pin_big copy 3" class="cls-1" d="M1017.5,272a15.391,15.391,0,0,0-15.5,15.276c0,0.436.03,0.861,0.06,1.289,0.01,0.152.03,0.31,0.05,0.457,0.03,0.258.06,0.511,0.11,0.762a5.864,5.864,0,0,0,.11.594c0.02,0.135.06,0.27,0.09,0.405,1.41,6.045,6.18,10.893,9.86,19.193a77.582,77.582,0,0,1,2.84,7.576L1017.5,326l2.37-8.449a80.494,80.494,0,0,1,2.85-7.577c3.68-8.3,8.45-13.147,9.86-19.192l0.09-.4c0.04-.195.07-0.392,0.11-0.594,0.04-.251.08-0.5,0.11-0.762,0.02-.147.03-0.305,0.05-0.457,0.03-.428.06-0.853,0.06-1.289A15.391,15.391,0,0,0,1017.5,272Zm0,22.179a6.9,6.9,0,1,1,7-6.906A6.96,6.96,0,0,1,1017.5,294.179Z" transform="translate(-1002 -272)"/>
</svg>
