<?xml version="1.0" encoding="utf-8"?>
<!-- Generator: Adobe Illustrator 19.2.1, SVG Export Plug-In . SVG Version: 6.00 Build 0)  -->
<svg version="1.1" id="Layer_1" xmlns="http://www.w3.org/2000/svg" xmlns:xlink="http://www.w3.org/1999/xlink" x="0px" y="0px"
	 viewBox="0 0 1320.1 687.3" style="enable-background:new 0 0 1320.1 687.3;" xml:space="preserve">
<style type="text/css">
	.st0{fill:url(#SVGID_1_);}
	.st1{fill:url(#SVGID_2_);}
	.st2{fill:url(#SVGID_3_);}
	.st3{fill:url(#SVGID_4_);}
	.st4{opacity:0.24;}
	.st5{fill:url(#SVGID_5_);}
	.st6{fill:url(#SVGID_6_);}
	.st7{fill:url(#SVGID_7_);}
	.st8{fill:url(#SVGID_8_);}
	.st9{fill:url(#SVGID_9_);}
	.st10{fill:url(#SVGID_10_);}
	.st11{fill:url(#SVGID_11_);}
	.st12{fill:url(#SVGID_12_);}
	.st13{fill:url(#SVGID_13_);}
	.st14{fill:url(#SVGID_14_);}
	.st15{fill:url(#SVGID_15_);}
	.st16{fill:url(#SVGID_16_);}
	.st17{fill:url(#SVGID_17_);}
	.st18{fill:url(#SVGID_18_);}
	.st19{fill:url(#SVGID_19_);}
	.st20{opacity:0.14;}
	.st21{fill:url(#SVGID_20_);}
	.st22{fill:url(#SVGID_21_);}
	.st23{opacity:0.7;}
	.st24{opacity:0;}
	.st25{opacity:1.408451e-002;}
	.st26{opacity:2.816901e-002;}
	.st27{opacity:4.225352e-002;}
	.st28{opacity:5.633803e-002;}
	.st29{opacity:7.042254e-002;}
	.st30{opacity:8.450704e-002;}
	.st31{opacity:9.859155e-002;}
	.st32{opacity:0.1127;}
	.st33{opacity:0.1268;}
	.st34{opacity:0.1408;}
	.st35{opacity:0.1549;}
	.st36{opacity:0.169;}
	.st37{opacity:0.1831;}
	.st38{opacity:0.1972;}
	.st39{opacity:0.2113;}
	.st40{opacity:0.2254;}
	.st41{opacity:0.2394;}
	.st42{opacity:0.2535;}
	.st43{opacity:0.2676;}
	.st44{opacity:0.2817;}
	.st45{opacity:0.2958;}
	.st46{opacity:0.3099;}
	.st47{opacity:0.3239;}
	.st48{opacity:0.338;}
	.st49{opacity:0.3521;}
	.st50{opacity:0.3662;}
	.st51{opacity:0.3803;}
	.st52{opacity:0.3944;}
	.st53{opacity:0.4085;}
	.st54{opacity:0.4225;}
	.st55{opacity:0.4366;}
	.st56{opacity:0.4507;}
	.st57{opacity:0.4648;}
	.st58{opacity:0.4789;}
	.st59{opacity:0.493;}
	.st60{opacity:0.507;}
	.st61{opacity:0.5211;}
	.st62{opacity:0.5352;}
	.st63{opacity:0.5493;}
	.st64{opacity:0.5634;}
	.st65{opacity:0.5775;}
	.st66{opacity:0.5915;}
	.st67{opacity:0.6056;}
	.st68{opacity:0.6197;}
	.st69{opacity:0.6338;}
	.st70{opacity:0.6479;}
	.st71{opacity:0.662;}
	.st72{opacity:0.6761;}
	.st73{opacity:0.6901;}
	.st74{opacity:0.7042;}
	.st75{opacity:0.7183;}
	.st76{opacity:0.7324;}
	.st77{opacity:0.7465;}
	.st78{opacity:0.7606;}
	.st79{opacity:0.7746;}
	.st80{opacity:0.7887;}
	.st81{opacity:0.8028;}
	.st82{opacity:0.8169;}
	.st83{opacity:0.831;}
	.st84{opacity:0.8451;}
	.st85{opacity:0.8592;}
	.st86{opacity:0.8732;}
	.st87{opacity:0.8873;}
	.st88{opacity:0.9014;}
	.st89{opacity:0.9155;}
	.st90{opacity:0.9296;}
	.st91{opacity:0.9437;}
	.st92{opacity:0.9577;}
	.st93{opacity:0.9718;}
	.st94{opacity:0.9859;}
	.st95{fill:url(#SVGID_22_);stroke:#FFFFFF;stroke-width:5.7491;stroke-miterlimit:10;}
	.st96{opacity:0.36;fill:url(#SVGID_23_);}
	.st97{fill:url(#SVGID_24_);}
	.st98{fill:url(#SVGID_25_);}
	.st99{fill:url(#SVGID_26_);}
	.st100{fill:#FC000E;}
	.st101{fill:#29ABE2;}
	.st102{fill:#0071BC;}
	.st103{font-family:'TheSans-Plain';}
	.st104{font-size:76.7081px;}
</style>
<g>
	<linearGradient id="SVGID_1_" gradientUnits="userSpaceOnUse" x1="381.4906" y1="250.5395" x2="486.0037" y2="250.5395">
		<stop  offset="0" style="stop-color:#3AC8FF"/>
		<stop  offset="1" style="stop-color:#006EB3"/>
	</linearGradient>
	<path class="st0" d="M486,243.3c0,79.5-38,150-96.8,194.5l-4.6,0c0,0,3.2-22.8,7.8-55.8c9-64.6,23.4-168.6,30.3-218.6
		c2.4-17.6,3.9-28.5,3.9-28.7c0-1-45.1-71.4-45.1-71.4h25.1C455.4,107.8,486,172,486,243.3z"/>
	<linearGradient id="SVGID_2_" gradientUnits="userSpaceOnUse" x1="355.1245" y1="238.4914" x2="1320.0735" y2="238.4914">
		<stop  offset="0" style="stop-color:#3AC8FF"/>
		<stop  offset="1" style="stop-color:#006EB3"/>
	</linearGradient>
	<path class="st1" d="M1320.1,239.3c0,0.9,0,1.8,0,2.7c-0.1,6-0.5,11.9-1.2,17.8c-0.2,2.1-0.5,4.2-0.8,6.2c-0.9,6-2.2,12-3.7,17.8
		c-0.5,2.1-1.1,4.2-1.8,6.2c-1.8,6.1-4,12-6.5,17.8c-0.9,2.1-1.8,4.2-2.8,6.2c-2.9,6.1-6.1,12.1-9.6,17.8c-1.3,2.1-2.6,4.2-4,6.2
		c-4.2,6.2-8.7,12.1-13.6,17.8c-1.8,2.1-3.7,4.2-5.6,6.2c-5.9,6.3-12.3,12.3-19.1,17.8c-2.6,2.2-5.3,4.2-8,6.2
		c-2.2,1.6-4.4,3.2-6.6,4.7c-0.8,0.6-1.6,1.1-2.4,1.6c-0.7,0.4-1.3,0.9-2,1.3c-5.8,3.7-11.8,7.1-18.1,10.2c-4.4,2.2-9,4.3-13.6,6.2
		c-22.9,9.5-48.1,15.2-74.6,16.3l0,0.7L470.2,427l0-0.2L470,427l-96.5,0.1c63.8-44.5,92.3-119.9,92.3-199.3
		c0-71.3-57.7-133.5-110.7-178l147.6,2.8l612.3-1.1c-0.5,0.1-0.3,0.2,2.1,0.2c17.9,0,35.3,2.2,51.9,6.2c3.8,0.8,7.7,1.9,11.4,3
		c6.3,1.9,12.5,4.1,18.6,6.6c0.7,0.3,1.3,0.5,2,0.8c0.7,0.3,1.4,0.6,2,0.9c1.1,0.5,2.1,0.9,3.1,1.4c2.2,1,4.4,2.1,6.6,3.1
		c10.4,5.2,20.2,11.1,29.4,17.8c2.8,2,5.5,4.1,8.1,6.2c6.9,5.5,13.3,11.5,19.3,17.8c1.9,2,3.8,4.1,5.7,6.2
		c4.9,5.7,9.5,11.6,13.7,17.8c1.4,2,2.7,4.1,4,6.2c3.6,5.7,6.8,11.7,9.8,17.8c1,2.1,1.9,4.1,2.8,6.2c2.5,5.8,4.7,11.7,6.6,17.8
		c0.6,2.1,1.2,4.1,1.8,6.2c1.6,5.8,2.8,11.8,3.8,17.8c0.3,2.1,0.6,4.1,0.9,6.2c0.7,5.8,1.1,11.8,1.3,17.8
		C1320.1,236.9,1320.1,238.1,1320.1,239.3z"/>
	<linearGradient id="SVGID_3_" gradientUnits="userSpaceOnUse" x1="438.2585" y1="437.6439" x2="438.4225" y2="437.6439">
		<stop  offset="0" style="stop-color:#3AC8FF"/>
		<stop  offset="1" style="stop-color:#006EB3"/>
	</linearGradient>
	<polygon class="st2" points="438.4,437.6 438.4,437.7 438.3,437.7 	"/>
	<linearGradient id="SVGID_4_" gradientUnits="userSpaceOnUse" x1="438.2585" y1="437.6439" x2="438.4225" y2="437.6439">
		<stop  offset="0" style="stop-color:#3AC8FF"/>
		<stop  offset="1" style="stop-color:#006EB3"/>
	</linearGradient>
	<polygon class="st3" points="438.4,437.6 438.4,437.7 438.3,437.7 	"/>
	<g class="st4">
		<linearGradient id="SVGID_5_" gradientUnits="userSpaceOnUse" x1="422.2198" y1="238.8853" x2="1320.0735" y2="238.8853">
			<stop  offset="0" style="stop-color:#065281"/>
			<stop  offset="1" style="stop-color:#2E9EC9"/>
		</linearGradient>
		<path class="st5" d="M1320,235.8h-100H522.2h-100v6.2h100H1220h100c0-0.9,0-1.8,0-2.7C1320.1,238.1,1320.1,236.9,1320,235.8z"/>
		<linearGradient id="SVGID_6_" gradientUnits="userSpaceOnUse" x1="422.2198" y1="407.1099" x2="1214.0944" y2="407.1099">
			<stop  offset="0" style="stop-color:#065281"/>
			<stop  offset="1" style="stop-color:#2E9EC9"/>
		</linearGradient>
		<path class="st6" d="M522.2,404h-100v6.2h100h578.2h100c4.6-1.9,9.2-4,13.6-6.2h-100H522.2z"/>
		<linearGradient id="SVGID_7_" gradientUnits="userSpaceOnUse" x1="422.2219" y1="383.0791" x2="1251.2809" y2="383.0791">
			<stop  offset="0" style="stop-color:#065281"/>
			<stop  offset="1" style="stop-color:#2E9EC9"/>
		</linearGradient>
		<path class="st7" d="M522.2,380h-100v6.2h100h621h100c2.7-2,5.4-4.1,8-6.2h-100H522.2z"/>
		<linearGradient id="SVGID_8_" gradientUnits="userSpaceOnUse" x1="422.2219" y1="359.0467" x2="1275.9982" y2="359.0467">
			<stop  offset="0" style="stop-color:#065281"/>
			<stop  offset="1" style="stop-color:#2E9EC9"/>
		</linearGradient>
		<path class="st8" d="M522.2,355.9h-100v6.2h100h648.1h100c1.9-2,3.8-4.1,5.6-6.2h-100H522.2z"/>
		<linearGradient id="SVGID_9_" gradientUnits="userSpaceOnUse" x1="422.2198" y1="335.0158" x2="1293.5896" y2="335.0158">
			<stop  offset="0" style="stop-color:#065281"/>
			<stop  offset="1" style="stop-color:#2E9EC9"/>
		</linearGradient>
		<path class="st9" d="M522.2,331.9h-100v6.2h100h667.3h100c1.4-2,2.7-4.1,4-6.2h-100H522.2z"/>
		<linearGradient id="SVGID_10_" gradientUnits="userSpaceOnUse" x1="422.2198" y1="310.9844" x2="1306.0367" y2="310.9844">
			<stop  offset="0" style="stop-color:#065281"/>
			<stop  offset="1" style="stop-color:#2E9EC9"/>
		</linearGradient>
		<path class="st10" d="M522.2,307.9h-100v6.2h100h681h100c1-2.1,1.9-4.1,2.8-6.2h-100H522.2z"/>
		<linearGradient id="SVGID_11_" gradientUnits="userSpaceOnUse" x1="422.2198" y1="286.9479" x2="1314.2833" y2="286.9479">
			<stop  offset="0" style="stop-color:#065281"/>
			<stop  offset="1" style="stop-color:#2E9EC9"/>
		</linearGradient>
		<path class="st11" d="M522.2,283.8h-100v6.2h100h690.3h100c0.6-2.1,1.2-4.1,1.8-6.2h-100H522.2z"/>
		<linearGradient id="SVGID_12_" gradientUnits="userSpaceOnUse" x1="422.2198" y1="262.9167" x2="1318.8508" y2="262.9167">
			<stop  offset="0" style="stop-color:#065281"/>
			<stop  offset="1" style="stop-color:#2E9EC9"/>
		</linearGradient>
		<path class="st12" d="M522.2,259.8h-100v6.2h100H1218h100c0.3-2.1,0.6-4.1,0.8-6.2h-100H522.2z"/>
		<linearGradient id="SVGID_13_" gradientUnits="userSpaceOnUse" x1="422.2198" y1="214.8539" x2="1318.7729" y2="214.8539">
			<stop  offset="0" style="stop-color:#065281"/>
			<stop  offset="1" style="stop-color:#2E9EC9"/>
		</linearGradient>
		<path class="st13" d="M1218.8,218h100c-0.2-2.1-0.5-4.2-0.9-6.2h-100H522.2h-100v6.2h100H1218.8z"/>
		<linearGradient id="SVGID_14_" gradientUnits="userSpaceOnUse" x1="422.2198" y1="190.8225" x2="1314.1051" y2="190.8225">
			<stop  offset="0" style="stop-color:#065281"/>
			<stop  offset="1" style="stop-color:#2E9EC9"/>
		</linearGradient>
		<path class="st14" d="M1214.1,193.9h100c-0.6-2.1-1.2-4.2-1.8-6.2h-100h-690h-100v6.2h100H1214.1z"/>
		<linearGradient id="SVGID_15_" gradientUnits="userSpaceOnUse" x1="422.2198" y1="166.786" x2="1305.7257" y2="166.786">
			<stop  offset="0" style="stop-color:#065281"/>
			<stop  offset="1" style="stop-color:#2E9EC9"/>
		</linearGradient>
		<path class="st15" d="M1205.7,169.9h100c-0.9-2.1-1.8-4.2-2.8-6.2h-100H522.2h-100v6.2h100H1205.7z"/>
		<linearGradient id="SVGID_16_" gradientUnits="userSpaceOnUse" x1="422.2198" y1="142.7548" x2="1293.1453" y2="142.7548">
			<stop  offset="0" style="stop-color:#065281"/>
			<stop  offset="1" style="stop-color:#2E9EC9"/>
		</linearGradient>
		<path class="st16" d="M1193.1,145.9h100c-1.3-2.1-2.7-4.2-4-6.2h-100H522.2h-100v6.2h100H1193.1z"/>
		<linearGradient id="SVGID_17_" gradientUnits="userSpaceOnUse" x1="422.2198" y1="118.7234" x2="1275.3635" y2="118.7234">
			<stop  offset="0" style="stop-color:#065281"/>
			<stop  offset="1" style="stop-color:#2E9EC9"/>
		</linearGradient>
		<path class="st17" d="M1175.3,121.8h100c-1.8-2.1-3.7-4.2-5.7-6.2h-100H522.2h-100v6.2h100H1175.3z"/>
		<linearGradient id="SVGID_18_" gradientUnits="userSpaceOnUse" x1="422.2219" y1="94.6902" x2="1250.3634" y2="94.6902">
			<stop  offset="0" style="stop-color:#065281"/>
			<stop  offset="1" style="stop-color:#2E9EC9"/>
		</linearGradient>
		<path class="st18" d="M522.2,91.6h-100v6.2h100h628.1h100c-2.7-2.1-5.4-4.2-8.1-6.2h-100H522.2z"/>
		<linearGradient id="SVGID_19_" gradientUnits="userSpaceOnUse" x1="422.2198" y1="70.6608" x2="1212.783" y2="70.6608">
			<stop  offset="0" style="stop-color:#065281"/>
			<stop  offset="1" style="stop-color:#2E9EC9"/>
		</linearGradient>
		<path class="st19" d="M1112.8,73.8h100c-2.2-1.1-4.4-2.1-6.6-3.1c-1-0.5-2.1-0.9-3.1-1.4c-0.7-0.3-1.4-0.6-2-0.9
			c-0.7-0.3-1.3-0.6-2-0.8h-100H522.2h-100v6.2h100H1112.8z"/>
	</g>
	<path class="st20" d="M1293,238.4c0,0.8,0,1.6,0,2.4c0,0.4,0,0.8,0,1.2c-0.1,5-0.5,9.9-1.1,14.8c-0.1,1-0.3,2-0.4,3
		c-0.1,0.8-0.3,1.7-0.4,2.6c-0.2,1.2-0.4,2.5-0.7,3.7c-0.8,4.1-1.8,8.2-2.9,12.2c-0.5,1.9-1.1,3.7-1.7,5.6c0,0,0,0,0,0
		c-0.7,2.1-1.4,4.1-2.2,6.2c-1.2,3.3-2.6,6.5-4.1,9.7c-0.9,1.9-1.8,3.7-2.7,5.6c-0.4,0.8-0.9,1.6-1.3,2.5c-1.1,2.1-2.3,4.2-3.5,6.2
		c-1.5,2.4-3,4.9-4.6,7.2c-1.3,1.9-2.6,3.7-3.9,5.6c-1.2,1.7-2.5,3.3-3.8,5c-1.7,2.1-3.4,4.2-5.2,6.2c-1.4,1.6-2.8,3.2-4.2,4.7
		c-1.8,1.9-3.6,3.8-5.5,5.6c-2.6,2.6-5.3,5.1-8.1,7.5c-2.5,2.1-5,4.2-7.6,6.2c-1,0.7-1.9,1.5-2.9,2.2c-2.5,1.9-5.1,3.8-7.8,5.6
		c-2.1,1.4-4.3,2.8-6.5,4.2c-0.8,0.5-1.6,1-2.4,1.4c-0.6,0.4-1.3,0.8-2,1.2c-1.9,1.1-3.8,2.2-5.7,3.2c-3.9,2.1-7.8,4.1-11.9,5.9
		c-0.2,0.1-0.4,0.2-0.7,0.3c-4.1,1.9-8.3,3.7-12.6,5.3c-15.4,5.9-31.8,10.1-48.9,12.5c-7.8,1.1-15.7,1.8-23.7,2.1l0,0.6l-474.5-0.1
		v0.1h-309V70.7h309v0.5l445.6,0.1c6.7-0.6,13.5-0.9,20.4-0.9c13.5,0,26.8,1.2,39.6,3.4c3.7,0.6,7.3,1.4,10.9,2.2
		c3.7,0.8,7.4,1.7,11.1,2.7c6.2,1.7,12.2,3.7,18.1,5.9c0.7,0.2,1.3,0.5,1.9,0.7c0.7,0.3,1.3,0.5,2,0.8c1,0.4,2,0.8,3.1,1.2
		c2.2,0.9,4.3,1.8,6.4,2.8c1,0.5,2,0.9,3,1.4c4.1,2,8.1,4,12.1,6.2c4.7,2.6,9.2,5.4,13.5,8.3c2.7,1.8,5.3,3.7,7.9,5.6
		c1.7,1.3,3.4,2.6,5.1,3.9c2.5,2,5,4.1,7.4,6.2c2.1,1.9,4.2,3.8,6.3,5.8c1.9,1.8,3.7,3.7,5.5,5.6c2,2.1,3.9,4.2,5.8,6.4
		c1.8,2,3.5,4.1,5.1,6.2c0.8,1.1,1.7,2.2,2.5,3.3c1.4,1.8,2.7,3.7,3.9,5.6c2,2.9,3.9,5.9,5.6,8.9c1.2,2,2.4,4.1,3.5,6.2
		c0.1,0.3,0.3,0.5,0.4,0.8c1,1.8,1.9,3.7,2.7,5.6c1.8,3.8,3.4,7.6,4.8,11.5c0.6,1.5,1.1,3,1.6,4.5c0.2,0.6,0.4,1.2,0.6,1.7
		c0.4,1.3,0.8,2.6,1.2,3.8c1.3,4.6,2.4,9.2,3.3,14c0.1,0.7,0.2,1.3,0.4,2c0.2,1.4,0.5,2.8,0.6,4.3c0.1,0.4,0.1,0.9,0.2,1.3
		c0.7,5.3,1.1,10.6,1.2,15.9c0,0.2,0,0.4,0,0.5C1293,236.6,1293,237.5,1293,238.4z"/>
	<g>
		<linearGradient id="SVGID_20_" gradientUnits="userSpaceOnUse" x1="0" y1="243.2323" x2="486.0037" y2="243.2323">
			<stop  offset="0" style="stop-color:#33B1E2"/>
			<stop  offset="1" style="stop-color:#065281"/>
		</linearGradient>
		<path class="st21" d="M406.5,63.3c-16.9-15.4-36-28.5-56.8-38.7c-1.2-0.6-2.5-1.2-3.8-1.8c-0.8-0.4-1.6-0.8-2.4-1.1
			c-8-3.7-16.2-6.9-24.6-9.7c-4.5-1.5-9.1-2.8-13.7-3.9c-19.8-5.2-40.6-8-62.1-8c-43.1,0-83.6,11.2-118.7,30.9
			C50.2,72.5,0,152,0,243.2c0,134.3,108.9,243.2,243.2,243.2c51.1,0,98.6-15.8,137.7-42.7c0.8-0.6,1.6-1.1,2.4-1.7
			c1-0.7,1.9-1.4,2.9-2.1c1-0.7,1.9-1.4,2.9-2.2C448,393.3,486,322.7,486,243.3C486,172,455.4,107.8,406.5,63.3z M392.3,382
			c-36.8,42-90.9,68.6-151,68.6c-110.7,0-200.8-90.1-200.8-200.8c0-110.8,90.1-200.8,200.8-200.8c79.9,0,149,46.8,181.3,114.5
			c12.5,26.2,19.5,55.5,19.5,86.4C442.2,300.3,423.3,346.7,392.3,382z"/>
		<linearGradient id="SVGID_21_" gradientUnits="userSpaceOnUse" x1="40.4638" y1="249.7458" x2="442.1605" y2="249.7458">
			<stop  offset="0" style="stop-color:#33B1E2"/>
			<stop  offset="1" style="stop-color:#065281"/>
		</linearGradient>
		<path class="st22" d="M442.2,249.7c0,110.7-90.1,200.8-200.9,200.8c-110.7,0-200.8-90.1-200.8-200.8
			c0-110.8,90.1-200.8,200.8-200.8C352.1,48.9,442.2,139,442.2,249.7z"/>
		<g class="st23">
			<path class="st24" d="M261.5,468.4c-115.4,0-209.3-93.9-209.3-209.3c0-115.4,93.9-209.3,209.3-209.3
				c115.4,0,209.3,93.9,209.3,209.3C470.8,374.5,376.9,468.4,261.5,468.4z"/>
			<path class="st25" d="M261.2,468.2C145.9,468.2,52,374.3,52,259c0-115.3,93.8-209.2,209.2-209.2c115.3,0,209.2,93.8,209.2,209.2
				C470.4,374.3,376.6,468.2,261.2,468.2z"/>
			<path class="st26" d="M260.9,467.9c-115.3,0-209.1-93.8-209.1-209.1c0-115.3,93.8-209.1,209.1-209.1
				c115.3,0,209.1,93.8,209.1,209.1C470,374.1,376.2,467.9,260.9,467.9z"/>
			<path class="st27" d="M260.6,467.7c-115.2,0-209-93.7-209-208.9c0-115.2,93.7-209,209-209c115.2,0,209,93.7,209,209
				C469.6,373.9,375.9,467.7,260.6,467.7z"/>
			<path class="st28" d="M260.4,467.4c-115.2,0-208.8-93.7-208.8-208.8c0-115.2,93.7-208.8,208.8-208.8
				c115.1,0,208.8,93.7,208.8,208.8C469.2,373.7,375.5,467.4,260.4,467.4z"/>
			<path class="st29" d="M260.1,467.2c-115.1,0-208.7-93.6-208.7-208.7c0-115.1,93.6-208.7,208.7-208.7
				c115.1,0,208.7,93.6,208.7,208.7C468.8,373.5,375.2,467.2,260.1,467.2z"/>
			<path class="st30" d="M259.8,466.9c-115,0-208.6-93.6-208.6-208.6c0-115,93.6-208.6,208.6-208.6c115,0,208.6,93.6,208.6,208.6
				C468.4,373.3,374.8,466.9,259.8,466.9z"/>
			<path class="st31" d="M259.5,466.7c-115,0-208.5-93.5-208.5-208.5c0-115,93.5-208.5,208.5-208.5c115,0,208.5,93.5,208.5,208.5
				C468,373.1,374.5,466.7,259.5,466.7z"/>
			<path class="st32" d="M259.2,466.4c-114.9,0-208.4-93.5-208.4-208.4c0-114.9,93.5-208.4,208.4-208.4
				c114.9,0,208.4,93.5,208.4,208.4C467.6,372.9,374.1,466.4,259.2,466.4z"/>
			<path class="st33" d="M258.9,466.2c-114.8,0-208.2-93.4-208.2-208.2c0-114.8,93.4-208.2,208.2-208.2
				c114.8,0,208.2,93.4,208.2,208.2C467.2,372.7,373.8,466.2,258.9,466.2z"/>
			<path class="st34" d="M258.7,465.9c-114.8,0-208.1-93.4-208.1-208.1c0-114.8,93.4-208.1,208.1-208.1
				c114.8,0,208.1,93.4,208.1,208.1C466.8,372.5,373.4,465.9,258.7,465.9z"/>
			<path class="st35" d="M258.4,465.7c-114.7,0-208-93.3-208-208c0-114.7,93.3-208,208-208c114.7,0,208,93.3,208,208
				C466.4,372.3,373.1,465.7,258.4,465.7z"/>
			<path class="st36" d="M258.1,465.4c-114.6,0-207.9-93.3-207.9-207.9c0-114.6,93.3-207.9,207.9-207.9
				c114.6,0,207.9,93.3,207.9,207.9C466,372.1,372.7,465.4,258.1,465.4z"/>
			<path class="st37" d="M257.8,465.2C143.2,465.2,50,371.9,50,257.4c0-114.6,93.2-207.8,207.8-207.8
				c114.6,0,207.8,93.2,207.8,207.8C465.6,371.9,372.4,465.2,257.8,465.2z"/>
			<path class="st38" d="M257.5,464.9c-114.5,0-207.6-93.2-207.6-207.6c0-114.5,93.2-207.6,207.6-207.6
				c114.5,0,207.6,93.1,207.6,207.6C465.2,371.7,372,464.9,257.5,464.9z"/>
			<path class="st39" d="M257.2,464.6c-114.4,0-207.5-93.1-207.5-207.5c0-114.4,93.1-207.5,207.5-207.5
				c114.4,0,207.5,93.1,207.5,207.5C464.8,371.6,371.7,464.6,257.2,464.6z"/>
			<path class="st40" d="M256.9,464.4c-114.4,0-207.4-93-207.4-207.4c0-114.4,93-207.4,207.4-207.4c114.4,0,207.4,93,207.4,207.4
				C464.3,371.4,371.3,464.4,256.9,464.4z"/>
			<path class="st41" d="M256.7,464.1c-114.3,0-207.3-93-207.3-207.3c0-114.3,93-207.3,207.3-207.3c114.3,0,207.3,93,207.3,207.3
				C463.9,371.2,371,464.1,256.7,464.1z"/>
			<path class="st42" d="M256.4,463.9c-114.2,0-207.2-92.9-207.2-207.2c0-114.2,92.9-207.2,207.2-207.2
				c114.2,0,207.2,92.9,207.2,207.2C463.5,371,370.6,463.9,256.4,463.9z"/>
			<path class="st43" d="M256.1,463.6c-114.2,0-207-92.9-207-207c0-114.2,92.9-207,207-207c114.2,0,207,92.9,207,207
				C463.1,370.8,370.3,463.6,256.1,463.6z"/>
			<path class="st44" d="M255.8,463.4c-114.1,0-206.9-92.8-206.9-206.9c0-114.1,92.8-206.9,206.9-206.9
				c114.1,0,206.9,92.8,206.9,206.9C462.7,370.6,369.9,463.4,255.8,463.4z"/>
			<path class="st45" d="M255.5,463.1c-114,0-206.8-92.8-206.8-206.8c0-114,92.8-206.8,206.8-206.8c114,0,206.8,92.8,206.8,206.8
				C462.3,370.4,369.6,463.1,255.5,463.1z"/>
			<path class="st46" d="M255.2,462.9c-114,0-206.7-92.7-206.7-206.7c0-114,92.7-206.7,206.7-206.7c114,0,206.7,92.7,206.7,206.7
				C461.9,370.2,369.2,462.9,255.2,462.9z"/>
			<path class="st47" d="M255,462.6c-113.9,0-206.6-92.7-206.6-206.6c0-113.9,92.7-206.6,206.6-206.6
				c113.9,0,206.6,92.7,206.6,206.6C461.5,370,368.9,462.6,255,462.6z"/>
			<path class="st48" d="M254.7,462.4c-113.8,0-206.5-92.6-206.5-206.4c0-113.8,92.6-206.4,206.5-206.4
				c113.8,0,206.4,92.6,206.4,206.4C461.1,369.8,368.5,462.4,254.7,462.4z"/>
			<path class="st49" d="M254.4,462.1c-113.8,0-206.3-92.6-206.3-206.3c0-113.8,92.6-206.3,206.3-206.3
				c113.8,0,206.3,92.6,206.3,206.3C460.7,369.6,368.2,462.1,254.4,462.1z"/>
			<path class="st50" d="M254.1,461.9c-113.7,0-206.2-92.5-206.2-206.2c0-113.7,92.5-206.2,206.2-206.2
				c113.7,0,206.2,92.5,206.2,206.2C460.3,369.4,367.8,461.9,254.1,461.9z"/>
			<path class="st51" d="M253.8,461.6c-113.6,0-206.1-92.5-206.1-206.1c0-113.6,92.5-206.1,206.1-206.1
				c113.6,0,206.1,92.5,206.1,206.1C459.9,369.2,367.5,461.6,253.8,461.6z"/>
			<path class="st52" d="M253.5,461.4c-113.6,0-206-92.4-206-206c0-113.6,92.4-206,206-206s206,92.4,206,206
				C459.5,369,367.1,461.4,253.5,461.4z"/>
			<path class="st53" d="M253.2,461.1c-113.5,0-205.9-92.3-205.9-205.9c0-113.5,92.3-205.9,205.9-205.9s205.9,92.3,205.9,205.9
				C459.1,368.8,366.8,461.1,253.2,461.1z"/>
			<path class="st54" d="M253,460.9c-113.4,0-205.7-92.3-205.7-205.7c0-113.4,92.3-205.7,205.7-205.7
				c113.4,0,205.7,92.3,205.7,205.7C458.7,368.6,366.4,460.9,253,460.9z"/>
			<path class="st55" d="M252.7,460.6c-113.4,0-205.6-92.2-205.6-205.6c0-113.4,92.2-205.6,205.6-205.6
				c113.4,0,205.6,92.2,205.6,205.6C458.3,368.4,366.1,460.6,252.7,460.6z"/>
			<path class="st56" d="M252.4,460.4c-113.3,0-205.5-92.2-205.5-205.5c0-113.3,92.2-205.5,205.5-205.5
				c113.3,0,205.5,92.2,205.5,205.5C457.9,368.2,365.7,460.4,252.4,460.4z"/>
			<path class="st57" d="M252.1,460.1c-113.2,0-205.4-92.1-205.4-205.4c0-113.2,92.1-205.4,205.4-205.4
				c113.2,0,205.4,92.1,205.4,205.4C457.5,368,365.4,460.1,252.1,460.1z"/>
			<path class="st58" d="M251.8,459.9c-113.2,0-205.3-92.1-205.3-205.3c0-113.2,92.1-205.3,205.3-205.3
				c113.2,0,205.3,92.1,205.3,205.3C457.1,367.8,365,459.9,251.8,459.9z"/>
			<path class="st59" d="M251.5,459.6c-113.1,0-205.1-92-205.1-205.1c0-113.1,92-205.1,205.1-205.1c113.1,0,205.1,92,205.1,205.1
				C456.7,367.6,364.7,459.6,251.5,459.6z"/>
			<path class="st60" d="M251.3,459.4c-113,0-205-92-205-205c0-113,92-205,205-205c113,0,205,92,205,205
				C456.3,367.4,364.3,459.4,251.3,459.4z"/>
			<path class="st61" d="M251,459.1c-113,0-204.9-91.9-204.9-204.9c0-113,91.9-204.9,204.9-204.9c113,0,204.9,91.9,204.9,204.9
				C455.9,367.2,364,459.1,251,459.1z"/>
			<path class="st62" d="M250.7,458.9c-112.9,0-204.8-91.9-204.8-204.8c0-112.9,91.9-204.8,204.8-204.8
				c112.9,0,204.8,91.9,204.8,204.8C455.5,367,363.6,458.9,250.7,458.9z"/>
			<path class="st63" d="M250.4,458.6c-112.8,0-204.7-91.8-204.7-204.7c0-112.9,91.8-204.7,204.7-204.7
				c112.9,0,204.7,91.8,204.7,204.7C455.1,366.8,363.3,458.6,250.4,458.6z"/>
			<path class="st64" d="M250.1,458.4c-112.8,0-204.5-91.8-204.5-204.5c0-112.8,91.8-204.5,204.5-204.5
				c112.8,0,204.5,91.8,204.5,204.5C454.7,366.6,362.9,458.4,250.1,458.4z"/>
			<path class="st65" d="M249.8,458.1c-112.7,0-204.4-91.7-204.4-204.4c0-112.7,91.7-204.4,204.4-204.4
				c112.7,0,204.4,91.7,204.4,204.4C454.3,366.4,362.6,458.1,249.8,458.1z"/>
			<path class="st66" d="M249.6,457.9c-112.7,0-204.3-91.7-204.3-204.3c0-112.7,91.7-204.3,204.3-204.3
				c112.7,0,204.3,91.6,204.3,204.3C453.9,366.2,362.2,457.9,249.6,457.9z"/>
			<path class="st67" d="M249.3,457.6c-112.6,0-204.2-91.6-204.2-204.2c0-112.6,91.6-204.2,204.2-204.2
				c112.6,0,204.2,91.6,204.2,204.2C453.5,366,361.9,457.6,249.3,457.6z"/>
			<path class="st68" d="M249,457.4c-112.5,0-204.1-91.5-204.1-204.1c0-112.5,91.5-204.1,204.1-204.1
				c112.5,0,204.1,91.5,204.1,204.1C453.1,365.8,361.5,457.4,249,457.4z"/>
			<path class="st69" d="M248.7,457.1c-112.5,0-203.9-91.5-203.9-203.9c0-112.5,91.5-203.9,203.9-203.9
				c112.5,0,203.9,91.5,203.9,203.9C452.6,365.6,361.2,457.1,248.7,457.1z"/>
			<path class="st70" d="M248.4,456.9C136,456.9,44.6,365.4,44.6,253c0-112.4,91.4-203.8,203.8-203.8
				c112.4,0,203.8,91.4,203.8,203.8C452.2,365.4,360.8,456.9,248.4,456.9z"/>
			<path class="st71" d="M248.1,456.6c-112.3,0-203.7-91.4-203.7-203.7c0-112.3,91.4-203.7,203.7-203.7
				c112.3,0,203.7,91.4,203.7,203.7C451.8,365.2,360.5,456.6,248.1,456.6z"/>
			<path class="st72" d="M247.8,456.4c-112.3,0-203.6-91.3-203.6-203.6c0-112.3,91.3-203.6,203.6-203.6
				c112.3,0,203.6,91.3,203.6,203.6C451.4,365,360.1,456.4,247.8,456.4z"/>
			<path class="st73" d="M247.6,456.1c-112.2,0-203.5-91.3-203.5-203.5c0-112.2,91.3-203.5,203.5-203.5
				c112.2,0,203.5,91.3,203.5,203.5C451,364.8,359.8,456.1,247.6,456.1z"/>
			<path class="st74" d="M247.3,455.9c-112.1,0-203.4-91.2-203.4-203.3c0-112.1,91.2-203.4,203.4-203.4
				c112.1,0,203.3,91.2,203.3,203.4C450.6,364.6,359.4,455.9,247.3,455.9z"/>
			<path class="st75" d="M247,455.6c-112.1,0-203.2-91.2-203.2-203.2c0-112.1,91.2-203.2,203.2-203.2
				c112.1,0,203.2,91.2,203.2,203.2C450.2,364.4,359.1,455.6,247,455.6z"/>
			<path class="st76" d="M246.7,455.4c-112,0-203.1-91.1-203.1-203.1c0-112,91.1-203.1,203.1-203.1c112,0,203.1,91.1,203.1,203.1
				C449.8,364.2,358.7,455.4,246.7,455.4z"/>
			<path class="st77" d="M246.4,455.1c-111.9,0-203-91.1-203-203c0-111.9,91.1-203,203-203c111.9,0,203,91.1,203,203
				C449.4,364,358.4,455.1,246.4,455.1z"/>
			<path class="st78" d="M246.1,454.9c-111.9,0-202.9-91-202.9-202.9c0-111.9,91-202.9,202.9-202.9C358,49.1,449,140.1,449,252
				C449,363.8,358,454.9,246.1,454.9z"/>
			<path class="st79" d="M245.9,454.6c-111.8,0-202.8-91-202.8-202.8c0-111.8,91-202.8,202.8-202.8c111.8,0,202.8,91,202.8,202.8
				C448.6,363.7,357.7,454.6,245.9,454.6z"/>
			<path class="st80" d="M245.6,454.4c-111.7,0-202.6-90.9-202.6-202.6c0-111.7,90.9-202.6,202.6-202.6
				c111.7,0,202.6,90.9,202.6,202.6C448.2,363.5,357.3,454.4,245.6,454.4z"/>
			<path class="st81" d="M245.3,454.1c-111.7,0-202.5-90.9-202.5-202.5c0-111.7,90.8-202.5,202.5-202.5
				c111.7,0,202.5,90.8,202.5,202.5C447.8,363.3,357,454.1,245.3,454.1z"/>
			<path class="st82" d="M245,453.9c-111.6,0-202.4-90.8-202.4-202.4c0-111.6,90.8-202.4,202.4-202.4
				c111.6,0,202.4,90.8,202.4,202.4C447.4,363.1,356.6,453.9,245,453.9z"/>
			<path class="st83" d="M244.7,453.6c-111.5,0-202.3-90.7-202.3-202.3C42.4,139.8,133.2,49,244.7,49C356.3,49,447,139.8,447,251.3
				C447,362.9,356.3,453.6,244.7,453.6z"/>
			<path class="st84" d="M244.4,453.4c-111.5,0-202.2-90.7-202.2-202.2C42.3,139.7,133,49,244.4,49c111.5,0,202.2,90.7,202.2,202.2
				C446.6,362.7,355.9,453.4,244.4,453.4z"/>
			<path class="st85" d="M244.2,453.1c-111.4,0-202-90.6-202-202c0-111.4,90.6-202,202-202c111.4,0,202,90.6,202,202
				C446.2,362.5,355.6,453.1,244.2,453.1z"/>
			<path class="st86" d="M243.9,452.9c-111.3,0-201.9-90.6-201.9-201.9C41.9,139.6,132.5,49,243.9,49
				c111.3,0,201.9,90.6,201.9,201.9C445.8,362.3,355.2,452.9,243.9,452.9z"/>
			<path class="st87" d="M243.6,452.6c-111.3,0-201.8-90.5-201.8-201.8C41.8,139.5,132.3,49,243.6,49
				c111.3,0,201.8,90.5,201.8,201.8C445.4,362.1,354.9,452.6,243.6,452.6z"/>
			<path class="st88" d="M243.3,452.3c-111.2,0-201.7-90.5-201.7-201.7C41.6,139.5,132.1,49,243.3,49C354.5,49,445,139.5,445,250.7
				C445,361.9,354.5,452.3,243.3,452.3z"/>
			<path class="st89" d="M243,452.1c-111.1,0-201.6-90.4-201.6-201.6C41.5,139.4,131.9,49,243,49c111.1,0,201.6,90.4,201.6,201.6
				C444.6,361.7,354.2,452.1,243,452.1z"/>
			<path class="st90" d="M242.7,451.8c-111.1,0-201.4-90.4-201.4-201.4C41.3,139.3,131.7,49,242.7,49
				c111.1,0,201.4,90.4,201.4,201.4C444.2,361.5,353.8,451.8,242.7,451.8z"/>
			<path class="st91" d="M242.4,451.6c-111,0-201.3-90.3-201.3-201.3c0-111,90.3-201.3,201.3-201.3c111,0,201.3,90.3,201.3,201.3
				C443.8,361.3,353.5,451.6,242.4,451.6z"/>
			<path class="st92" d="M242.2,451.3C131.2,451.3,41,361.1,41,250.1c0-110.9,90.3-201.2,201.2-201.2
				c110.9,0,201.2,90.3,201.2,201.2C443.4,361.1,353.1,451.3,242.2,451.3z"/>
			<path class="st93" d="M241.9,451.1C131,451.1,40.8,360.9,40.8,250c0-110.9,90.2-201.1,201.1-201.1C352.8,48.9,443,139.1,443,250
				C443,360.9,352.8,451.1,241.9,451.1z"/>
			<path class="st94" d="M241.6,450.8c-110.8,0-201-90.2-201-201c0-110.8,90.2-201,201-201c110.8,0,201,90.2,201,201
				C442.6,360.7,352.4,450.8,241.6,450.8z"/>
			<path d="M241.3,450.6c-110.7,0-200.8-90.1-200.8-200.8c0-110.8,90.1-200.8,200.8-200.8c110.8,0,200.8,90.1,200.8,200.8
				C442.2,360.5,352.1,450.6,241.3,450.6z"/>
		</g>
		<linearGradient id="SVGID_22_" gradientUnits="userSpaceOnUse" x1="100.5201" y1="108.9525" x2="384.4246" y2="392.857">
			<stop  offset="0" style="stop-color:#C3C4C3"/>
			<stop  offset="0.2166" style="stop-color:#DADADA"/>
			<stop  offset="0.4838" style="stop-color:#EEEFEE"/>
			<stop  offset="0.7471" style="stop-color:#FBFBFB"/>
			<stop  offset="1" style="stop-color:#FFFFFF"/>
		</linearGradient>
		<path class="st95" d="M442.2,249.7c0,110.7-90.1,200.8-200.9,200.8c-110.7,0-200.8-90.1-200.8-200.8
			c0-110.8,90.1-200.8,200.8-200.8C352.1,48.9,442.2,139,442.2,249.7z"/>
		<linearGradient id="SVGID_23_" gradientUnits="userSpaceOnUse" x1="100.5201" y1="108.9525" x2="384.4246" y2="392.857">
			<stop  offset="1.005030e-002" style="stop-color:#818281"/>
			<stop  offset="0.1174" style="stop-color:#929292"/>
			<stop  offset="0.3433" style="stop-color:#AEAFAE"/>
			<stop  offset="0.5678" style="stop-color:#C3C4C3"/>
			<stop  offset="0.7883" style="stop-color:#D0D0D0"/>
			<stop  offset="1" style="stop-color:#D4D4D4"/>
		</linearGradient>
		<path class="st96" d="M442.2,249.7c0,110.7-90.1,200.8-200.9,200.8c-110.7,0-200.8-90.1-200.8-200.8
			c0-110.8,90.1-200.8,200.8-200.8C352.1,48.9,442.2,139,442.2,249.7z"/>
	</g>
	<g>
		
			<image style="overflow:visible;opacity:0.25;" width="714" height="251" xlink:href="F25A2D2A.png"  transform="matrix(1 0 0 1 496.0321 132.7505)">
		</image>
		<g>
			<g>
				<linearGradient id="SVGID_24_" gradientUnits="userSpaceOnUse" x1="526.9934" y1="243.2322" x2="722.7004" y2="243.2322">
					<stop  offset="5.025130e-003" style="stop-color:#C0C2C0"/>
					<stop  offset="0.2067" style="stop-color:#D5D6D5"/>
					<stop  offset="0.4773" style="stop-color:#E9EAE9"/>
					<stop  offset="0.744" style="stop-color:#F6F6F6"/>
					<stop  offset="1" style="stop-color:#FAFAFA"/>
				</linearGradient>
				<path class="st97" d="M527,241.4c0-13,2.4-25.9,7.2-38.8c4.8-12.9,11.8-24.5,21.1-34.7c9.3-10.3,20.6-18.5,34-24.8
					c13.4-6.3,28.5-9.4,45.4-9.4c20.2,0,37.6,4.4,52,13.1c14.4,8.7,25.3,20.1,32.6,34.1l-27.6,18c-3.1-6.5-6.9-12-11.3-16.4
					c-4.4-4.5-9.2-8-14.4-10.7c-5.2-2.6-10.6-4.5-16.3-5.6c-5.6-1.1-11.1-1.7-16.3-1.7c-11.7,0-21.9,2.3-30.7,6.9
					c-8.8,4.6-16.1,10.6-22.1,18.1c-6,7.5-10.4,15.9-13.5,25.3c-3,9.3-4.5,18.7-4.5,28c0,10.6,1.8,20.6,5.3,30.2
					c3.5,9.5,8.5,18,14.9,25.3c6.4,7.3,13.9,13.2,22.7,17.5c8.8,4.4,18.4,6.6,28.8,6.6c5.4,0,11-0.7,16.8-2
					c5.7-1.3,11.3-3.5,16.6-6.4c5.3-2.9,10.2-6.7,14.7-11.1c4.5-4.5,8.2-9.8,11.1-16.1l29.1,16.1c-3.6,8.1-8.6,15.3-15,21.5
					c-6.5,6.2-13.8,11.4-21.9,15.7c-8.1,4.3-16.8,7.5-25.8,9.7c-9.1,2.2-18,3.3-26.8,3.3c-15.7,0-30-3.2-42.9-9.7
					c-12.9-6.5-24.1-15-33.5-25.4c-9.4-10.5-16.7-22.3-21.9-35.6C529.6,268.8,527,255.2,527,241.4z"/>
				<linearGradient id="SVGID_25_" gradientUnits="userSpaceOnUse" x1="755.2611" y1="243.2322" x2="977.5824" y2="243.2322">
					<stop  offset="5.025130e-003" style="stop-color:#C0C2C0"/>
					<stop  offset="0.2067" style="stop-color:#D5D6D5"/>
					<stop  offset="0.4773" style="stop-color:#E9EAE9"/>
					<stop  offset="0.744" style="stop-color:#F6F6F6"/>
					<stop  offset="1" style="stop-color:#FAFAFA"/>
				</linearGradient>
				<path class="st98" d="M942.2,351.4V195.7l-66.1,117.9h-19.4l-66.4-117.9v155.7h-35.1V135.1h37.6l73.6,132.2L940,135.1h37.6
					v216.3H942.2z"/>
				<linearGradient id="SVGID_26_" gradientUnits="userSpaceOnUse" x1="1013.5896" y1="243.2322" x2="1209.2987" y2="243.2322">
					<stop  offset="5.025130e-003" style="stop-color:#C0C2C0"/>
					<stop  offset="0.2067" style="stop-color:#D5D6D5"/>
					<stop  offset="0.4773" style="stop-color:#E9EAE9"/>
					<stop  offset="0.744" style="stop-color:#F6F6F6"/>
					<stop  offset="1" style="stop-color:#FAFAFA"/>
				</linearGradient>
				<path class="st99" d="M1013.6,241.4c0-13,2.4-25.9,7.2-38.8c4.8-12.9,11.8-24.5,21.1-34.7c9.3-10.3,20.6-18.5,34-24.8
					c13.4-6.3,28.5-9.4,45.4-9.4c20.2,0,37.6,4.4,52,13.1c14.4,8.7,25.3,20.1,32.6,34.1l-27.6,18c-3.1-6.5-6.9-12-11.3-16.4
					c-4.4-4.5-9.2-8-14.4-10.7c-5.2-2.6-10.6-4.5-16.3-5.6c-5.6-1.1-11.1-1.7-16.3-1.7c-11.7,0-21.9,2.3-30.7,6.9
					c-8.8,4.6-16.1,10.6-22.1,18.1c-6,7.5-10.4,15.9-13.5,25.3c-3,9.3-4.5,18.7-4.5,28c0,10.6,1.8,20.6,5.3,30.2
					c3.5,9.5,8.5,18,14.9,25.3c6.4,7.3,13.9,13.2,22.7,17.5c8.8,4.4,18.4,6.6,28.8,6.6c5.4,0,11-0.7,16.8-2
					c5.7-1.3,11.3-3.5,16.6-6.4c5.3-2.9,10.2-6.7,14.7-11.1c4.5-4.5,8.2-9.8,11.1-16.1l29.1,16.1c-3.6,8.1-8.6,15.3-15,21.5
					c-6.5,6.2-13.8,11.4-21.9,15.7c-8.1,4.3-16.8,7.5-25.8,9.7c-9.1,2.2-18,3.3-26.8,3.3c-15.7,0-30-3.2-42.9-9.7
					c-12.9-6.5-24.1-15-33.5-25.4c-9.4-10.5-16.7-22.3-21.9-35.6C1016.2,268.8,1013.6,255.2,1013.6,241.4z"/>
			</g>
		</g>
	</g>
	<g>
		
			<image style="overflow:visible;opacity:0.25;" width="246" height="305" xlink:href="F25A2D2F.png"  transform="matrix(1 0 0 1 105.0321 105.7505)">
		</image>
		<g>
			<g>
				<path class="st100" d="M319.9,171.6c-2.6-2.8-6.4-5.7-11.3-8.9c-4.9-3.2-10.7-6.1-17.3-8.9c-6.6-2.8-13.9-5-21.8-6.8
					c-7.9-1.8-16-2.6-24.3-2.6c-18.4,0-32,3.3-40.7,9.8c-8.7,6.6-13,15.7-13,27.3c0,6.6,1.4,11.9,4.1,16.1c2.7,4.2,6.9,7.8,12.7,11
					c5.7,3.2,12.8,5.9,21.4,8.3c8.6,2.4,18.6,5,30,7.8c14,3.3,26.7,6.9,38,11c11.3,4,20.8,9,28.6,14.8c7.8,5.8,13.8,12.9,18.1,21.4
					c4.3,8.5,6.4,18.7,6.4,30.9c0,13.6-2.7,25.4-8,35.2c-5.3,9.8-12.6,17.9-21.8,24.1c-9.2,6.2-19.9,10.7-32.1,13.6
					c-12.2,2.9-25.3,4.4-39.3,4.4c-21,0-41.3-3.1-60.9-9.3c-19.6-6.2-37.3-15.2-53.1-27.1l19.9-36.4c3.4,3.3,8.2,6.9,14.6,11
					c6.4,4,13.8,7.8,22.2,11.2c8.4,3.4,17.6,6.3,27.4,8.7c9.9,2.4,20.1,3.6,30.8,3.6c17.1,0,30.4-2.9,39.7-8.7
					c9.3-5.8,14-14.4,14-25.8c0-6.8-1.8-12.5-5.3-17c-3.5-4.5-8.5-8.5-15-11.9c-6.5-3.4-14.4-6.5-23.7-9.3c-9.3-2.8-20-5.7-31.9-8.7
					c-13.8-3.5-25.8-7.3-36-11.2c-10.3-3.9-18.8-8.6-25.5-14.2c-6.8-5.6-11.9-12.1-15.4-19.5c-3.5-7.4-5.3-16.5-5.3-27.1
					c0-13.1,2.6-24.8,7.8-35c5.2-10.2,12.3-18.8,21.2-25.8c9-6.9,19.5-12.2,31.7-15.7c12.2-3.5,25.4-5.3,39.7-5.3
					c18.7,0,35.9,2.9,51.8,8.7c15.8,5.8,29.7,13,41.7,21.6L319.9,171.6z"/>
			</g>
		</g>
	</g>
</g>
<g>
	<g>
		<path class="st101" d="M102.3,679.5c2.7,1.6,6.6,2.9,10.7,2.9c6.1,0,9.6-3.1,9.6-7.6c0-4.2-2.5-6.6-8.7-8.9
			c-7.5-2.6-12.2-6.4-12.2-12.7c0-7,5.9-12.2,14.9-12.2c4.7,0,8.1,1.1,10.2,2.2l-1.6,4.7c-1.5-0.8-4.6-2.1-8.8-2.1
			c-6.3,0-8.7,3.7-8.7,6.7c0,4.2,2.8,6.3,9.2,8.6c7.8,2.9,11.8,6.6,11.8,13.2c0,6.9-5.3,12.9-16.1,12.9c-4.4,0-9.3-1.3-11.8-2.9
			L102.3,679.5z"/>
		<path class="st101" d="M176.2,663.7c0,15.4-9.6,23.6-21.4,23.6c-12.2,0-20.7-9.2-20.7-22.7c0-14.2,9.1-23.5,21.4-23.5
			C168.1,641,176.2,650.4,176.2,663.7z M140.4,664.4c0,9.6,5.3,18.2,14.7,18.2c9.4,0,14.8-8.4,14.8-18.6c0-8.9-4.8-18.2-14.7-18.2
			C145.4,645.7,140.4,654.5,140.4,664.4z"/>
		<path class="st101" d="M189.9,641.7v26.5c0,10,4.6,14.3,10.7,14.3c6.8,0,11.2-4.4,11.2-14.3v-26.5h6v26.1
			c0,13.8-7.5,19.4-17.4,19.4c-9.4,0-16.5-5.3-16.5-19.2v-26.4H189.9z"/>
		<path class="st101" d="M236.9,646.6h-14v-4.9H257v4.9h-14.1v39.9h-6V646.6z"/>
		<path class="st101" d="M268.1,641.7v18.8h22.3v-18.8h6v44.8h-6v-21h-22.3v21h-5.9v-44.8H268.1z"/>
		<path class="st101" d="M330.5,665.5h-17.9v16.2h20v4.9h-25.9v-44.8h24.9v4.9h-18.9v14.2h17.9V665.5z"/>
		<path class="st101" d="M340.3,642.3c3-0.6,7.3-0.9,11.4-0.9c6.4,0,10.5,1.1,13.3,3.7c2.3,2,3.6,5.1,3.6,8.5
			c0,5.9-3.8,9.8-8.7,11.4v0.2c3.6,1.2,5.7,4.4,6.8,9c1.5,6.3,2.6,10.6,3.6,12.3h-6.2c-0.8-1.3-1.8-5.1-3.1-10.7
			c-1.4-6.2-3.8-8.5-9.2-8.7h-5.6v19.4h-5.9V642.3z M346.3,662.7h6.1c6.4,0,10.4-3.4,10.4-8.5c0-5.8-4.3-8.3-10.6-8.4
			c-2.9,0-4.9,0.3-5.9,0.5V662.7z"/>
		<path class="st101" d="M377.1,686.5v-44.8h6.5l14.8,22.7c3.4,5.3,6.1,10,8.3,14.6l0.1-0.1c-0.5-6-0.7-11.4-0.7-18.4v-18.8h5.6
			v44.8h-6L391,663.8c-3.2-5-6.3-10.1-8.6-15l-0.2,0.1c0.3,5.7,0.5,11,0.5,18.5v19.2H377.1z"/>
		<path class="st101" d="M468.8,685.1c-2.2,1.1-6.6,2.1-12.2,2.1c-13,0-22.8-8-22.8-22.7c0-14,9.8-23.5,24.1-23.5
			c5.7,0,9.4,1.2,10.9,2l-1.4,4.7c-2.3-1.1-5.5-1.9-9.3-1.9c-10.8,0-18,6.7-18,18.5c0,11,6.5,18,17.7,18c3.6,0,7.3-0.7,9.7-1.9
			L468.8,685.1z"/>
		<path class="st101" d="M483.9,672.4l-4.8,14.1H473l15.7-44.8h7.2l15.7,44.8h-6.4l-4.9-14.1H483.9z M499,667.9l-4.5-12.9
			c-1-2.9-1.7-5.6-2.4-8.2H492c-0.7,2.7-1.4,5.4-2.3,8.1l-4.5,13H499z"/>
		<path class="st101" d="M518.3,686.5v-44.8h6.5l14.8,22.7c3.4,5.3,6.1,10,8.3,14.6l0.1-0.1c-0.5-6-0.7-11.4-0.7-18.4v-18.8h5.6
			v44.8h-6l-14.6-22.7c-3.2-5-6.3-10.1-8.6-15l-0.2,0.1c0.3,5.7,0.5,11,0.5,18.5v19.2H518.3z"/>
		<path class="st101" d="M616.6,666.8c-0.3-6.3-0.8-13.8-0.7-19.4h-0.2c-1.6,5.3-3.5,10.8-5.8,17l-8.1,21.7h-4.5l-7.5-21.3
			c-2.2-6.3-4-12.1-5.3-17.4h-0.1c-0.1,5.6-0.5,13.1-0.9,19.8l-1.2,19.2h-5.7l3.2-44.8h7.6l7.9,21.7c1.9,5.5,3.5,10.4,4.6,15.1h0.2
			c1.2-4.5,2.8-9.4,4.9-15.1l8.2-21.7h7.6l2.9,44.8h-5.8L616.6,666.8z"/>
		<path class="st101" d="M639.5,672.4l-4.8,14.1h-6.2l15.7-44.8h7.2l15.7,44.8h-6.4l-4.9-14.1H639.5z M654.6,667.9l-4.5-12.9
			c-1-2.9-1.7-5.6-2.4-8.2h-0.1c-0.7,2.7-1.4,5.4-2.3,8.1l-4.5,13H654.6z"/>
		<path class="st101" d="M673.9,641.7h5.9v21.6h0.2c1.2-1.7,2.5-3.3,3.6-4.8l14.1-16.8h7.4l-16.7,19l18,25.8h-7l-15.2-22l-4.4,4.9
			v17.1h-5.9V641.7z"/>
		<path class="st101" d="M716.9,641.7v44.8h-5.9v-44.8H716.9z"/>
		<path class="st101" d="M727.3,686.5v-44.8h6.5l14.8,22.7c3.4,5.3,6.1,10,8.3,14.6l0.1-0.1c-0.5-6-0.7-11.4-0.7-18.4v-18.8h5.6
			v44.8h-6l-14.6-22.7c-3.2-5-6.3-10.1-8.6-15l-0.2,0.1c0.3,5.7,0.5,11,0.5,18.5v19.2H727.3z"/>
		<path class="st101" d="M807.3,684.5c-2.7,0.9-7.9,2.5-14.2,2.5c-7,0-12.7-1.7-17.2-5.9c-4-3.7-6.4-9.7-6.4-16.7
			c0.1-13.4,9.5-23.1,25-23.1c5.3,0,9.5,1.1,11.5,2.1l-1.4,4.7c-2.5-1.1-5.5-1.9-10.2-1.9c-11.2,0-18.5,6.8-18.5,18
			c0,11.4,7,18.1,17.8,18.1c3.9,0,6.6-0.5,7.9-1.2v-13.4h-9.4V663h15.2V684.5z"/>
		<path class="st101" d="M863.1,685.1c-2.2,1.1-6.6,2.1-12.2,2.1c-13,0-22.8-8-22.8-22.7c0-14,9.8-23.5,24.1-23.5
			c5.7,0,9.4,1.2,10.9,2l-1.4,4.7c-2.3-1.1-5.5-1.9-9.3-1.9c-10.8,0-18,6.7-18,18.5c0,11,6.5,18,17.7,18c3.6,0,7.3-0.7,9.7-1.9
			L863.1,685.1z"/>
		<path class="st101" d="M908.5,663.7c0,15.4-9.6,23.6-21.4,23.6c-12.2,0-20.7-9.2-20.7-22.7c0-14.2,9.1-23.5,21.4-23.5
			C900.3,641,908.5,650.4,908.5,663.7z M872.7,664.4c0,9.6,5.3,18.2,14.7,18.2c9.4,0,14.8-8.4,14.8-18.6c0-8.9-4.8-18.2-14.7-18.2
			C877.7,645.7,872.7,654.5,872.7,664.4z"/>
		<path class="st101" d="M955,666.8c-0.3-6.3-0.8-13.8-0.7-19.4h-0.2c-1.6,5.3-3.5,10.8-5.8,17l-8.1,21.7h-4.5l-7.5-21.3
			c-2.2-6.3-4-12.1-5.3-17.4h-0.1c-0.1,5.6-0.5,13.1-0.9,19.8l-1.2,19.2H915l3.2-44.8h7.6l7.9,21.7c1.9,5.5,3.5,10.4,4.6,15.1h0.2
			c1.2-4.5,2.8-9.4,4.9-15.1l8.2-21.7h7.6l2.9,44.8h-5.8L955,666.8z"/>
		<path class="st101" d="M971.2,642.2c2.9-0.5,6.6-0.9,11.4-0.9c5.9,0,10.2,1.3,12.9,3.7c2.5,2.1,4,5.4,4,9.4c0,4.1-1.2,7.2-3.6,9.6
			c-3.1,3.3-8.3,4.9-14.1,4.9c-1.8,0-3.4-0.1-4.8-0.4v18h-5.9V642.2z M977.1,663.9c1.3,0.3,2.9,0.5,4.9,0.5c7.2,0,11.6-3.4,11.6-9.6
			c0-5.9-4.3-8.8-10.9-8.8c-2.6,0-4.6,0.2-5.6,0.5V663.9z"/>
		<path class="st101" d="M1009.2,672.4l-4.8,14.1h-6.2l15.7-44.8h7.2l15.7,44.8h-6.4l-4.9-14.1H1009.2z M1024.3,667.9l-4.5-12.9
			c-1-2.9-1.7-5.6-2.4-8.2h-0.1c-0.7,2.7-1.4,5.4-2.3,8.1l-4.5,13H1024.3z"/>
		<path class="st101" d="M1043.6,686.5v-44.8h6.5l14.8,22.7c3.4,5.3,6.1,10,8.3,14.6l0.1-0.1c-0.5-6-0.7-11.4-0.7-18.4v-18.8h5.6
			v44.8h-6l-14.6-22.7c-3.2-5-6.3-10.1-8.6-15l-0.2,0.1c0.3,5.7,0.5,11,0.5,18.5v19.2H1043.6z"/>
		<path class="st101" d="M1098.4,686.5v-19l-14.6-25.8h6.8l6.5,12.4c1.8,3.4,3.1,6.1,4.6,9.2h0.1c1.3-2.9,2.9-5.9,4.6-9.2l6.6-12.4
			h6.8l-15.4,25.7v19.1H1098.4z"/>
		<path class="st101" d="M1139.6,641.7h5.9v40h19.7v4.9h-25.6V641.7z"/>
		<path class="st101" d="M1174.6,646.6h-14v-4.9h34.1v4.9h-14.1v39.9h-6V646.6z"/>
		<path class="st101" d="M1199.8,642.3c3.6-0.5,7.9-0.9,12.6-0.9c8.5,0,14.6,1.9,18.7,5.6c4.1,3.7,6.5,8.8,6.5,16.1
			c0,7.3-2.3,13.3-6.6,17.4c-4.3,4.2-11.4,6.5-20.4,6.5c-4.2,0-7.8-0.2-10.8-0.5V642.3z M1205.8,681.9c1.5,0.3,3.7,0.3,6,0.3
			c12.7,0,19.6-6.9,19.6-19c0.1-10.6-6.1-17.3-18.7-17.3c-3.1,0-5.4,0.3-7,0.6V681.9z"/>
	</g>
</g>
<text transform="matrix(1 0 0 1 145.9882 583.751)" class="st102 st103 st104">ةدودــــحلا بلــــعلا ةعانـــــصل بوـــــنجلا ةـــــكش</text>
</svg>
