<svg xmlns="http://www.w3.org/2000/svg" width="20" height="19" viewBox="0 0 20 19">
  <defs>
    <style>
      .cls-1 {
        fill: #fff;
        fill-rule: evenodd;
      }
    </style>
  </defs>
  <path id="upload" class="cls-1" d="M1283.27,1048.96a6.037,6.037,0,0,0-1.81-3.4,5.673,5.673,0,0,0-7.05-.61,5.9,5.9,0,0,0-1.88,2.03,4.071,4.071,0,0,0-.61-0.05,3.221,3.221,0,0,0-3.17,3.25,3.73,3.73,0,0,0,.07.68,4.594,4.594,0,0,0-1.82,3.66,4.873,4.873,0,0,0,1.2,3.2,4.175,4.175,0,0,0,2.96,1.53h3.57a0.553,0.553,0,0,0,.55-0.57,0.559,0.559,0,0,0-.55-0.57h-3.52a3.565,3.565,0,0,1-3.1-3.6,3.412,3.412,0,0,1,1.63-2.91,0.59,0.59,0,0,0,.25-0.7,1.954,1.954,0,0,1-.13-0.72,2.1,2.1,0,0,1,2.06-2.12,2.118,2.118,0,0,1,.71.12,0.534,0.534,0,0,0,.69-0.29,4.657,4.657,0,0,1,8.9,1.59,0.563,0.563,0,0,0,.46.51,4.13,4.13,0,0,1-.38,8.12h-3.03a0.57,0.57,0,0,0,0,1.14h3.09a4.84,4.84,0,0,0,3.3-1.67,5.332,5.332,0,0,0,1.34-3.55A5.26,5.26,0,0,0,1283.27,1048.96Zm-2.94,6.1a0.58,0.58,0,0,0,0-.81l-2.94-3.02a0.522,0.522,0,0,0-.39-0.17,0.538,0.538,0,0,0-.39.17l-2.94,3.02a0.58,0.58,0,0,0,0,.81,0.555,0.555,0,0,0,.39.17,0.538,0.538,0,0,0,.39-0.17l2-2.05v9.42a0.553,0.553,0,0,0,.55.57,0.561,0.561,0,0,0,.56-0.57v-9.42l1.99,2.05A0.543,0.543,0,0,0,1280.33,1055.06Z" transform="translate(-1267 -1044)"/>
</svg>
